<?xml version="1.0" encoding="UTF-8" standalone="no"?>
<svg
   version="1.1"
   x="0px"
   y="0px"
   viewBox="0 0 24 30"
   enable-background="new 0 0 24 24"
   xml:space="preserve"
   id="svg8"
   sodipodi:docname="empty.svg"
   inkscape:version="1.1 (c68e22c387, 2021-05-23)"
   xmlns:inkscape="http://www.inkscape.org/namespaces/inkscape"
   xmlns:sodipodi="http://sodipodi.sourceforge.net/DTD/sodipodi-0.dtd"
   xmlns="http://www.w3.org/2000/svg"
   xmlns:svg="http://www.w3.org/2000/svg"><defs
     id="defs12" /><sodipodi:namedview
     id="namedview10"
     pagecolor="#9d9d9d"
     bordercolor="#ffffff"
     borderopacity="1"
     inkscape:pageshadow="0"
     inkscape:pageopacity="0"
     inkscape:pagecheckerboard="1"
     showgrid="false"
     inkscape:zoom="18.431917"
     inkscape:cx="9.5486542"
     inkscape:cy="16.276115"
     inkscape:window-width="1920"
     inkscape:window-height="986"
     inkscape:window-x="-11"
     inkscape:window-y="-11"
     inkscape:window-maximized="1"
     inkscape:current-layer="svg8" /><rect
     style="fill:#000000;stroke-width:5.91496"
     id="rect1043"
     width="26.313053"
     height="32.986259"
     x="-0.37977603"
     y="-1.139328" /><path
     d="m 19.116097,7.4158302 c -0.259867,-0.2598668 -0.679907,-0.2598668 -0.939774,0 L 15.256643,10.33551 C 14.356746,9.6356644 13.228884,9.2149593 12,9.2149593 c -2.9362956,0 -5.3169681,2.3806727 -5.3169681,5.3169677 0,1.228884 0.4207051,2.356746 1.1205511,3.256643 l -2.9196801,2.91968 c -0.2598668,0.259867 -0.2598668,0.679907 0,0.939774 0.1296011,0.129601 0.2997441,0.194734 0.469887,0.194734 0.170143,0 0.340286,-0.06513 0.4698871,-0.194734 l 2.9196801,-2.91968 C 9.6439185,19.42819 10.771116,19.848895 12,19.848895 c 2.936296,0 5.316968,-2.380672 5.316968,-5.316968 0,-1.228884 -0.420705,-2.356081 -1.120551,-3.256643 l 2.91968,-2.9196797 c 0.259867,-0.2598668 0.259867,-0.6799073 0,-0.9397741 z M 8.012274,14.531927 c 0,-2.199231 1.7884951,-3.987726 3.987726,-3.987726 0.86002,0 1.654906,0.276483 2.3069,0.741053 L 8.7533264,16.838827 C 8.2887563,16.186833 8.012274,15.391947 8.012274,14.531927 Z m 7.975452,0 c 0,2.199231 -1.788495,3.987726 -3.987726,3.987726 -0.86002,0 -1.654906,-0.276482 -2.3068995,-0.741052 l 5.5535735,-5.553573 c 0.46457,0.651993 0.741052,1.44688 0.741052,2.306899 z"
     id="path2"
     style="fill:#ffffff;stroke-width:0.664621" /><text
     x="0"
     y="39"
     fill="#000000"
     font-size="5px"
     font-weight="bold"
     font-family="'Helvetica Neue', Helvetica, Arial-Unicode, Arial, Sans-serif"
     id="text4">Created by Rflor</text><text
     x="0"
     y="44"
     fill="#000000"
     font-size="5px"
     font-weight="bold"
     font-family="'Helvetica Neue', Helvetica, Arial-Unicode, Arial, Sans-serif"
     id="text6">from the Noun Project</text></svg>
