<?xml version="1.0" encoding="UTF-8" standalone="no"?>
<!-- Created with Inkscape (http://www.inkscape.org/) -->

<svg
   width="24"
   height="30"
   viewBox="0 0 6.3499999 7.9375002"
   version="1.1"
   id="svg5"
   inkscape:version="1.1.1 (3bf5ae0d25, 2021-09-20)"
   sodipodi:docname="lait.svg"
   xmlns:inkscape="http://www.inkscape.org/namespaces/inkscape"
   xmlns:sodipodi="http://sodipodi.sourceforge.net/DTD/sodipodi-0.dtd"
   xmlns="http://www.w3.org/2000/svg"
   xmlns:svg="http://www.w3.org/2000/svg">
  <sodipodi:namedview
     id="namedview7"
     pagecolor="#ffffff"
     bordercolor="#cccccc"
     borderopacity="1"
     inkscape:pageshadow="0"
     inkscape:pageopacity="1"
     inkscape:pagecheckerboard="0"
     inkscape:document-units="mm"
     showgrid="false"
     units="px"
     inkscape:zoom="22.627417"
     inkscape:cx="15.600543"
     inkscape:cy="10.739184"
     inkscape:window-width="2880"
     inkscape:window-height="1526"
     inkscape:window-x="-5"
     inkscape:window-y="-11"
     inkscape:window-maximized="1"
     inkscape:current-layer="layer2"
     inkscape:snap-global="false" />
  <defs
     id="defs2" />
  <g
     inkscape:label="Background"
     inkscape:groupmode="layer"
     id="layer1"
     sodipodi:insensitive="true">
    <rect
       style="fill:#002255;stroke:#4d4d4d;stroke-width:0"
       id="rect843"
       width="6.3913407"
       height="8.0201817"
       x="-0.033072978"
       y="-0.033072975" />
    <path
       id="rect892"
       style="fill:#164450;stroke:#4d4d4d;stroke-width:0"
       d="M -0.08268232,-0.04960935 -0.07441409,6.6724609 6.3830728,4.6136718 6.3582681,-0.03307289 Z"
       sodipodi:nodetypes="ccccc" />
  </g>
  <g
     inkscape:groupmode="layer"
     id="layer2"
     inkscape:label="Window"
     style="display:inline">
    <path
       style="fill:#00002b;stroke:#4d4d4d;stroke-width:0"
       d="M 18.212891,8.8261719 7.1875,9.9375 C 6.683133,11.35832 5.1073954,17.368275 4.3535156,20.125 L 15.400391,17.207031 Z"
       transform="scale(0.26458333)"
       id="path2210" />
    <path
       style="fill:#37483e;stroke:#4d4d4d;stroke-width:0"
       d="M 19.990234,3.53125 8.8007812,3.8652344 7.3984375,8.9921875 18.496094,7.9804688 Z"
       transform="scale(0.26458333)"
       id="rect1339" />
    <path
       id="path1800"
       style="fill:#2c5aa0;stroke:#000000;stroke-width:0;stroke-linecap:butt;stroke-linejoin:miter;stroke-miterlimit:4;stroke-dasharray:none;stroke-opacity:1"
       d="M 14.117188,17.052734 4.5898438,19.201172 4.3574219,20.107422 5.8125,21.46875 18.25,17.59375 Z"
       transform="scale(0.26458333)" />
    <path
       style="fill:#000080;stroke:#000000;stroke-width:0;stroke-linecap:butt;stroke-linejoin:miter;stroke-miterlimit:4;stroke-dasharray:none;stroke-opacity:1"
       d="M 1.5378906,5.6802734 1.151786,5.324739 1.149286,5.6058593 1.5213563,6.0440754 Z"
       id="path1868" />
    <path
       style="fill:#000080;stroke:#000000;stroke-width:0;stroke-linecap:butt;stroke-linejoin:miter;stroke-miterlimit:4;stroke-dasharray:none;stroke-opacity:1"
       d="M 1.5378906,5.6802734 1.5213562,6.0440754 4.7790364,4.9113281 4.8286458,4.655013 Z"
       id="path1969" />
    <path
       style="fill:#d7e3f4;stroke:#000000;stroke-width:0;stroke-linecap:butt;stroke-linejoin:miter;stroke-miterlimit:4;stroke-dasharray:none;stroke-opacity:1"
       d="M 1.9016927,2.6292968 4.8534505,2.3316406 4.9278645,2.1083984 1.9347656,2.38125 Z"
       id="path2004" />
    <path
       id="path13508"
       style="fill:#002255;stroke:#000000;stroke-width:0;stroke-linecap:butt;stroke-linejoin:miter;stroke-miterlimit:4;stroke-dasharray:none;stroke-opacity:1;fill-opacity:1"
       d="M 12.705078 18.783203 L 8.9042969 19.070312 L 10.763672 19.925781 L 13.658203 19.025391 L 12.705078 18.783203 z "
       transform="scale(0.26458333)" />
  </g>
  <g
     inkscape:groupmode="layer"
     id="layer3"
     inkscape:label="Bowl">
    <g
       id="g4770"
       transform="matrix(1.4750976,0,0,1.2987003,-1.6224053,-1.4744002)">
      <path
         style="fill:#ffcc00;stroke:#4d4d4d;stroke-width:0;stroke-miterlimit:4;stroke-dasharray:none"
         d="m 9.390625,18.255859 0.6875,0.65625 h 0.0059 a 1.2968756,0.24135787 0 0 0 1.28711,0.214844 1.2968756,0.24135787 0 0 0 1.277344,-0.197265 h 0.0039 l 0.675781,-0.664063 z"
         transform="scale(0.26458333)"
         id="path2753-7" />
      <path
         id="path4063"
         style="fill:#ff9955;stroke:#000000;stroke-width:0;stroke-linecap:butt;stroke-linejoin:miter;stroke-miterlimit:4;stroke-dasharray:none;stroke-opacity:1"
         d="m 10.255859,18.257812 0.439453,0.832032 a 1.2968756,0.24135787 0 0 0 0.675782,0.03711 1.2968756,0.24135787 0 0 0 1.277344,-0.197265 h 0.0039 l 0.675781,-0.664063 z"
         transform="scale(0.26458333)" />
      <ellipse
         style="fill:#ffcc00;stroke:#4d4d4d;stroke-width:0;stroke-miterlimit:4;stroke-dasharray:none"
         id="path2753"
         cx="3.0046701"
         cy="4.8197169"
         rx="0.52503252"
         ry="0.097712331" />
      <ellipse
         style="fill:#ff9955;stroke:#4d4d4d;stroke-width:0;stroke-miterlimit:4;stroke-dasharray:none"
         id="ellipse3387"
         cx="3.0046701"
         cy="4.8197169"
         rx="0.48013812"
         ry="0.084624283" />
      <path
         style="fill:none;stroke:#000000;stroke-width:0;stroke-linecap:butt;stroke-linejoin:miter;stroke-miterlimit:4;stroke-dasharray:none;stroke-opacity:1"
         d="M 3.363211,4.6816015 3.20974,5.1317837 3.4830649,5.1069366 3.6979243,4.7137581 Z"
         id="path3879" />
      <path
         id="path4250"
         style="fill:#ffcc00;stroke:#000000;stroke-width:0;stroke-linecap:butt;stroke-linejoin:miter;stroke-miterlimit:4;stroke-dasharray:none;stroke-opacity:1"
         d="m 12.742188,18.009766 -0.289063,0.460937 a 1.8146953,0.31983981 0 0 0 0.71875,-0.253906 1.8146953,0.31983981 0 0 0 -0.429687,-0.207031 z"
         transform="scale(0.26458333)" />
      <path
         id="ellipse4508"
         style="fill:#ffffff;stroke:#4d4d4d;stroke-width:0;stroke-miterlimit:4;stroke-dasharray:none"
         d="m 11.328125,18.216797 a 1.4385766,0.25354895 0 0 0 -1.324219,0.212891 1.8146953,0.31983981 0 0 0 1.351563,0.105468 1.8146953,0.31983981 0 0 0 1.458984,-0.128906 1.4385766,0.25354895 0 0 0 -1.392578,-0.189453 1.4385766,0.25354895 0 0 0 -0.09375,0 z"
         transform="scale(0.26458333)" />
    </g>
  </g>
</svg>
