<?xml version="1.0" encoding="UTF-8" standalone="no"?>
<!-- Created with Inkscape (http://www.inkscape.org/) -->

<svg
   width="24"
   height="30"
   viewBox="0 0 6.3499999 7.9375002"
   version="1.1"
   id="svg5"
   inkscape:version="1.1.1 (3bf5ae0d25, 2021-09-20)"
   sodipodi:docname="raisonResterLucky.svg"
   xmlns:inkscape="http://www.inkscape.org/namespaces/inkscape"
   xmlns:sodipodi="http://sodipodi.sourceforge.net/DTD/sodipodi-0.dtd"
   xmlns="http://www.w3.org/2000/svg"
   xmlns:svg="http://www.w3.org/2000/svg">
  <sodipodi:namedview
     id="namedview7"
     pagecolor="#ffffff"
     bordercolor="#cccccc"
     borderopacity="1"
     inkscape:pageshadow="0"
     inkscape:pageopacity="1"
     inkscape:pagecheckerboard="0"
     inkscape:document-units="mm"
     showgrid="false"
     units="px"
     inkscape:zoom="15.763322"
     inkscape:cx="-6.2804021"
     inkscape:cy="15.986478"
     inkscape:window-width="2880"
     inkscape:window-height="1526"
     inkscape:window-x="-5"
     inkscape:window-y="-11"
     inkscape:window-maximized="1"
     inkscape:current-layer="layer2" />
  <defs
     id="defs2" />
  <g
     inkscape:label="Background"
     inkscape:groupmode="layer"
     id="layer1">
    <rect
       style="fill:#ff9955;stroke-width:0.229146;stroke-linejoin:bevel"
       id="rect861"
       width="6.6106176"
       height="8.910655"
       x="-0.12452231"
       y="-0.77897251" />
  </g>
  <g
     inkscape:groupmode="layer"
     id="layer2"
     inkscape:label="Heart">
    <path
       style="fill:#002255;stroke:#000000;stroke-width:0;stroke-linecap:butt;stroke-linejoin:miter;stroke-miterlimit:4;stroke-dasharray:none;stroke-opacity:1"
       d="M 1.9453617,3.0716084 C 2.7096126,2.2318236 3.2889534,2.2251026 3.2994564,1.3344473 3.3035545,0.9869253 3.3476888,0.3036095 2.6961448,0.1536297 2.3898919,0.083133 2.0785932,0.2810481 1.9453615,0.7019427 1.7427775,0.1734828 1.4659841,0.1681004 1.2059755,0.1852068 0.78389993,0.212976 0.52805743,0.8894817 0.57344993,1.396807 0.64263393,2.170038 1.0993233,2.2625853 1.9453617,3.0716084 Z"
       id="path934"
       sodipodi:nodetypes="csscssc" />
    <path
       style="fill:#002255;stroke:#000000;stroke-width:0;stroke-linecap:butt;stroke-linejoin:miter;stroke-miterlimit:4;stroke-dasharray:none;stroke-opacity:1"
       d="M 4.303209,4.1904741 C 3.5389581,5.0302589 2.9596173,5.0369799 2.9491143,5.9276352 2.9450162,6.2751572 2.9008819,6.958473 3.5524259,7.1084528 3.8586788,7.1789495 4.1699775,6.9810344 4.3032092,6.5601398 4.5057932,7.0885997 4.7825867,7.0939821 5.0425953,7.0768757 5.4646708,7.0491065 5.7205134,6.3726008 5.6751209,5.8652755 5.6059368,5.0920445 5.1492475,4.9994972 4.303209,4.1904741 Z"
       id="path934-0"
       sodipodi:nodetypes="csscssc" />
  </g>
</svg>
