<?xml version="1.0" encoding="UTF-8" standalone="no"?>
<!-- Created with Inkscape (http://www.inkscape.org/) -->

<svg
   width="24"
   height="30"
   viewBox="0 0 6.3499999 7.9375002"
   version="1.1"
   id="svg5"
   inkscape:version="1.1.1 (3bf5ae0d25, 2021-09-20)"
   sodipodi:docname="dormir.svg"
   xmlns:inkscape="http://www.inkscape.org/namespaces/inkscape"
   xmlns:sodipodi="http://sodipodi.sourceforge.net/DTD/sodipodi-0.dtd"
   xmlns="http://www.w3.org/2000/svg"
   xmlns:svg="http://www.w3.org/2000/svg">
  <sodipodi:namedview
     id="namedview7"
     pagecolor="#ffffff"
     bordercolor="#cccccc"
     borderopacity="1"
     inkscape:pageshadow="0"
     inkscape:pageopacity="1"
     inkscape:pagecheckerboard="0"
     inkscape:document-units="mm"
     showgrid="false"
     units="px"
     inkscape:zoom="11.313709"
     inkscape:cx="-9.5459411"
     inkscape:cy="16.882174"
     inkscape:window-width="2880"
     inkscape:window-height="1526"
     inkscape:window-x="-5"
     inkscape:window-y="-11"
     inkscape:window-maximized="1"
     inkscape:current-layer="layer2"
     inkscape:snap-nodes="true"
     inkscape:snap-bbox="true" />
  <defs
     id="defs2" />
  <g
     inkscape:label="Background"
     inkscape:groupmode="layer"
     id="layer1"
     style="display:inline">
    <rect
       style="fill:#002255;stroke-width:0"
       id="rect1281"
       width="7.1933594"
       height="8.9296875"
       x="-0.38033855"
       y="-0.57877606" />
  </g>
  <g
     inkscape:groupmode="layer"
     id="layer2"
     inkscape:label="Dream">
    <path
       id="path16522"
       style="fill:#ffcc00;fill-opacity:1;stroke:#4d4d4d;stroke-width:0"
       d="M 2.5518531,2.309155 A 1.3622393,1.3622393 0 0 0 2.0660347,3.2994754 1.3622393,1.3622393 0 0 0 3.3750333,4.712858 1.3622393,1.3622393 0 0 0 4.3229326,4.3763421 1.4440906,1.5025558 2.1958063 0 1 3.7943057,4.460019 1.4440906,1.5025558 2.1958063 0 1 2.4085877,2.9030318 1.4440906,1.5025558 2.1958063 0 1 2.5518531,2.309155 Z" />
    <path
       sodipodi:type="star"
       style="fill:#ffcc00;fill-opacity:1;stroke:#4d4d4d;stroke-width:0"
       id="path16652"
       inkscape:flatsided="false"
       sodipodi:sides="5"
       sodipodi:cx="4.7729707"
       sodipodi:cy="7.8223686"
       sodipodi:r1="1.682864"
       sodipodi:r2="0.84143198"
       sodipodi:arg1="1.9756881"
       sodipodi:arg2="2.6040066"
       inkscape:rounded="0"
       inkscape:randomized="0"
       d="M 4.1100581,9.3691647 4.050225,8.2532357 3.097029,7.6698876 4.1398511,7.2681419 4.4000943,6.1813341 5.1044269,7.0489706 6.2184621,6.9606346 5.6109415,7.8986091 6.0392099,8.9308222 4.9594089,8.6428859 Z"
       transform="matrix(0.26458333,0,0,0.26458333,-0.25724691,-0.95882938)"
       inkscape:transform-center-x="0.030486665"
       inkscape:transform-center-y="-0.012466992" />
    <path
       sodipodi:type="star"
       style="fill:#ffcc00;fill-opacity:1;stroke:#4d4d4d;stroke-width:0"
       id="path16676"
       inkscape:flatsided="false"
       sodipodi:sides="5"
       sodipodi:cx="16.926369"
       sodipodi:cy="19.533825"
       sodipodi:r1="1.0941963"
       sodipodi:r2="0.54709816"
       sodipodi:arg1="0.75683451"
       sodipodi:arg2="1.385153"
       inkscape:rounded="0"
       inkscape:randomized="0"
       d="m 17.721864,20.285126 -0.694513,-0.213603 -0.56969,0.451027 -0.01147,-0.726527 -0.604997,-0.402433 0.687425,-0.235416 0.195782,-0.699745 0.43632,0.581033 0.725997,-0.03003 -0.417765,0.594513 z"
       transform="matrix(0.26458333,0,0,0.26458333,1.1225321,-0.23386082)"
       inkscape:transform-center-x="0.016512902"
       inkscape:transform-center-y="-0.011465778" />
    <path
       sodipodi:type="star"
       style="fill:#ffcc00;fill-opacity:1;stroke:#4d4d4d;stroke-width:0"
       id="path16678"
       inkscape:flatsided="false"
       sodipodi:sides="5"
       sodipodi:cx="5.3033004"
       sodipodi:cy="24.04163"
       sodipodi:r1="0.85009187"
       sodipodi:r2="0.42504594"
       sodipodi:arg1="-1.4141944"
       sodipodi:arg2="-0.78587592"
       inkscape:rounded="0"
       inkscape:randomized="0"
       d="m 5.4358829,23.201941 0.1678267,0.538992 0.539153,0.167312 -0.4607514,0.326171 0.00748,0.564467 -0.4525867,-0.337409 -0.5345272,0.181549 0.1810374,-0.534701 -0.3378406,-0.452264 0.5644739,0.0069 z"
       transform="matrix(0.26458333,0,0,0.26458333,-0.21047474,-0.11693041)"
       inkscape:transform-center-x="-0.010840028"
       inkscape:transform-center-y="-0.01090572" />
    <path
       sodipodi:type="star"
       style="fill:#ffcc00;fill-opacity:1;stroke:#4d4d4d;stroke-width:0"
       id="path16680"
       inkscape:flatsided="false"
       sodipodi:sides="5"
       sodipodi:cx="19.887377"
       sodipodi:cy="27.400387"
       sodipodi:r1="1.1858541"
       sodipodi:r2="0.59292704"
       sodipodi:arg1="0.46364761"
       sodipodi:arg2="1.0919661"
       inkscape:rounded="0"
       inkscape:randomized="0"
       d="m 20.948037,27.930717 -0.787474,-0.0041 -0.449798,0.646386 -0.239456,-0.750196 -0.753744,-0.228039 0.639482,-0.459559 -0.01604,-0.787322 0.634678,0.466172 0.74383,-0.258552 -0.24723,0.74767 z"
       transform="matrix(0.26458333,0,0,0.26458333,-1.4967092,-0.11693041)"
       inkscape:transform-center-x="0.014439984"
       inkscape:transform-center-y="0.015893736" />
    <path
       sodipodi:type="star"
       style="fill:#ffcc00;fill-opacity:1;stroke:#4d4d4d;stroke-width:0"
       id="path16682"
       inkscape:flatsided="false"
       sodipodi:sides="5"
       sodipodi:cx="10.38563"
       sodipodi:cy="13.479222"
       sodipodi:r1="0.79549509"
       sodipodi:r2="0.39774755"
       sodipodi:arg1="-1.5707963"
       sodipodi:arg2="-0.9424778"
       inkscape:rounded="0"
       inkscape:randomized="0"
       d="m 10.38563,12.683727 0.23379,0.473711 0.52277,0.07596 -0.37828,0.368732 0.0893,0.520658 -0.46758,-0.245821 -0.4675806,0.245821 0.0893,-0.520658 -0.3782801,-0.368732 0.5227711,-0.07596 z"
       transform="matrix(0.26458333,0,0,0.26458333,2.1047475,-2.9232603)"
       inkscape:transform-center-y="-0.020098595" />
  </g>
</svg>
