<?xml version="1.0" encoding="UTF-8" standalone="no"?>
<!-- Created with Inkscape (http://www.inkscape.org/) -->

<svg
   width="24"
   height="30"
   viewBox="0 0 6.3499999 7.9375002"
   version="1.1"
   id="svg5"
   inkscape:version="1.1.1 (3bf5ae0d25, 2021-09-20)"
   sodipodi:docname="phase1.svg"
   xmlns:inkscape="http://www.inkscape.org/namespaces/inkscape"
   xmlns:sodipodi="http://sodipodi.sourceforge.net/DTD/sodipodi-0.dtd"
   xmlns="http://www.w3.org/2000/svg"
   xmlns:svg="http://www.w3.org/2000/svg">
  <sodipodi:namedview
     id="namedview7"
     pagecolor="#ffffff"
     bordercolor="#cccccc"
     borderopacity="1"
     inkscape:pageshadow="0"
     inkscape:pageopacity="1"
     inkscape:pagecheckerboard="0"
     inkscape:document-units="mm"
     showgrid="false"
     units="px"
     inkscape:zoom="8"
     inkscape:cx="4.1157471"
     inkscape:cy="13.989885"
     inkscape:window-width="1920"
     inkscape:window-height="986"
     inkscape:window-x="-11"
     inkscape:window-y="1609"
     inkscape:window-maximized="1"
     inkscape:current-layer="layer2"
     inkscape:snap-nodes="true"
     inkscape:snap-bbox="true"
     inkscape:rotation="2" />
  <defs
     id="defs2" />
  <g
     inkscape:label="Background"
     inkscape:groupmode="layer"
     id="layer1"
     style="display:inline">
    <rect
       style="fill:#002255;stroke-width:0"
       id="rect1281"
       width="7.5423546"
       height="9.4469891"
       x="-0.55483621"
       y="-0.83742708" />
  </g>
  <g
     inkscape:groupmode="layer"
     id="layer2"
     inkscape:label="Flame">
    <path
       style="fill:#ff9955;stroke:#000000;stroke-width:0;stroke-linecap:butt;stroke-linejoin:miter;stroke-miterlimit:4;stroke-dasharray:none;stroke-opacity:1"
       d="M 4.5174585,6.9458383 C 3.7830081,7.3672423 2.9664636,7.4812374 1.8645975,6.8675585 0.69911585,6.2184513 1.0244237,5.3864175 1.1375261,4.8811239 1.3032225,4.1408631 2.3795908,3.6418371 2.6153837,0.92119073 c 0,0 0.1532595,0.31986107 0.6948884,1.32310687 0.4050624,0.7502867 0.2060823,1.2065845 0.2060823,1.2065845 0.085389,-0.3206328 0.08653,-0.2698293 0.1206721,-0.4141969 0.088513,-0.3742766 -0.050318,-0.9769649 -0.050318,-0.9769649 0,0 1.5849923,1.1327379 1.6781648,2.6202856 0.02648,0.4227681 0.3781602,1.620013 -0.7474148,2.2658324 z"
       id="path3105"
       sodipodi:nodetypes="ssscscscss" />
    <path
       style="fill:#002255;stroke:#000000;stroke-width:0;stroke-linecap:butt;stroke-linejoin:miter;stroke-miterlimit:4;stroke-dasharray:none;stroke-opacity:1"
       d="m 3.0594392,7.2808086 c 0,0 0.3693014,0.098759 0.658161,-0.1588721 C 4.0064597,6.8643042 4.0862059,6.5933315 3.9969136,6.1042907 3.9553616,5.8767163 3.9127134,5.6046151 3.6774396,5.2815057 3.5436216,5.097729 2.8578484,4.5696447 2.8578484,4.5696447 c 0,0 0.079657,0.4512226 -0.4034833,1.2512514 -0.1824238,0.3020744 -0.2030012,1.3439784 0.6050741,1.4599125 z"
       id="path900"
       sodipodi:nodetypes="cssscsc" />
  </g>
</svg>
