<?xml version="1.0" encoding="UTF-8" standalone="no"?>
<!-- Created with Inkscape (http://www.inkscape.org/) -->

<svg
   width="24"
   height="30"
   viewBox="0 0 6.3499999 7.9375002"
   version="1.1"
   id="svg5"
   inkscape:version="1.1.1 (3bf5ae0d25, 2021-09-20)"
   sodipodi:docname="raisonResterAmour.svg"
   xmlns:inkscape="http://www.inkscape.org/namespaces/inkscape"
   xmlns:sodipodi="http://sodipodi.sourceforge.net/DTD/sodipodi-0.dtd"
   xmlns="http://www.w3.org/2000/svg"
   xmlns:svg="http://www.w3.org/2000/svg">
  <sodipodi:namedview
     id="namedview7"
     pagecolor="#ffffff"
     bordercolor="#cccccc"
     borderopacity="1"
     inkscape:pageshadow="0"
     inkscape:pageopacity="1"
     inkscape:pagecheckerboard="0"
     inkscape:document-units="mm"
     showgrid="false"
     units="px"
     inkscape:zoom="15.763322"
     inkscape:cx="3.7428659"
     inkscape:cy="14.590833"
     inkscape:window-width="1920"
     inkscape:window-height="986"
     inkscape:window-x="-11"
     inkscape:window-y="1609"
     inkscape:window-maximized="1"
     inkscape:current-layer="layer2" />
  <defs
     id="defs2" />
  <g
     inkscape:label="Background"
     inkscape:groupmode="layer"
     id="layer1">
    <rect
       style="fill:#002255;stroke-width:0.229146;stroke-linejoin:bevel"
       id="rect861"
       width="6.6106176"
       height="8.910655"
       x="-0.12452231"
       y="-0.77897251" />
  </g>
  <g
     inkscape:groupmode="layer"
     id="layer2"
     inkscape:label="Heart">
    <path
       style="fill:#ff9955;stroke:#000000;stroke-width:0;stroke-linecap:butt;stroke-linejoin:miter;stroke-miterlimit:4;stroke-dasharray:none;stroke-opacity:1"
       d="M 2.0125007,3.3569491 C 2.7767516,2.5171643 3.3560924,2.5104433 3.3665954,1.619788 3.3706935,1.272266 3.4148278,0.58895016 2.7632838,0.43897036 2.4570309,0.36847366 2.1457322,0.56638876 2.0125005,0.98728336 1.8099165,0.45882346 1.5331231,0.45344106 1.2731145,0.47054746 0.85103891,0.49831666 0.59519641,1.1748224 0.64058891,1.6821477 0.70977291,2.4553787 1.1664623,2.547926 2.0125007,3.3569491 Z"
       id="path934"
       sodipodi:nodetypes="csscssc" />
    <path
       style="fill:#ff9955;stroke:#000000;stroke-width:0;stroke-linecap:butt;stroke-linejoin:miter;stroke-miterlimit:4;stroke-dasharray:none;stroke-opacity:1"
       d="M 4.370348,4.4758148 C 3.6060971,5.3155996 3.0267563,5.3223206 3.0162533,6.2129759 3.0121552,6.5604979 2.9680209,7.2438137 3.6195649,7.3937935 3.9258178,7.4642902 4.2371165,7.2663751 4.3703482,6.8454805 4.5729322,7.3739404 4.8497257,7.3793228 5.1097343,7.3622164 5.5318098,7.3344472 5.7876524,6.6579415 5.7422599,6.1506162 5.6730758,5.3773852 5.2163865,5.2848379 4.370348,4.4758148 Z"
       id="path934-0"
       sodipodi:nodetypes="csscssc" />
  </g>
</svg>
