<?xml version="1.0" encoding="UTF-8" standalone="no"?>
<!-- Created with Inkscape (http://www.inkscape.org/) -->

<svg
   width="24"
   height="30"
   viewBox="0 0 6.3499999 7.9375002"
   version="1.1"
   id="svg5"
   inkscape:version="1.1.1 (3bf5ae0d25, 2021-09-20)"
   sodipodi:docname="raisonPartirVeterinaire.svg"
   xmlns:inkscape="http://www.inkscape.org/namespaces/inkscape"
   xmlns:sodipodi="http://sodipodi.sourceforge.net/DTD/sodipodi-0.dtd"
   xmlns="http://www.w3.org/2000/svg"
   xmlns:svg="http://www.w3.org/2000/svg">
  <sodipodi:namedview
     id="namedview7"
     pagecolor="#ffffff"
     bordercolor="#cccccc"
     borderopacity="1"
     inkscape:pageshadow="0"
     inkscape:pageopacity="1"
     inkscape:pagecheckerboard="0"
     inkscape:document-units="mm"
     showgrid="false"
     units="px"
     inkscape:zoom="22.627417"
     inkscape:cx="2.7414562"
     inkscape:cy="13.922359"
     inkscape:window-width="1920"
     inkscape:window-height="986"
     inkscape:window-x="-11"
     inkscape:window-y="1609"
     inkscape:window-maximized="1"
     inkscape:current-layer="layer1"
     inkscape:snap-nodes="true"
     inkscape:snap-bbox="true"
     inkscape:rotation="2" />
  <defs
     id="defs2" />
  <g
     inkscape:label="Background"
     inkscape:groupmode="layer"
     id="layer1"
     style="display:inline">
    <rect
       style="fill:#002255;stroke-width:0"
       id="rect1281"
       width="7.5423546"
       height="9.4469891"
       x="-0.55483621"
       y="-0.83742708" />
  </g>
  <g
     inkscape:groupmode="layer"
     id="layer2"
     inkscape:label="Flame">
    <g
       id="g827"
       style="fill:#ff9955">
      <g
         id="g6227"
         transform="matrix(0.53343545,0,0,0.53343545,0.28634559,-0.10980546)">
        <path
           style="fill:#ff9955;stroke:#000000;stroke-width:0;stroke-linecap:butt;stroke-linejoin:miter;stroke-miterlimit:4;stroke-dasharray:none;stroke-opacity:1"
           d="M 4.5174585,6.9458383 C 3.7830081,7.3672423 2.9664636,7.4812374 1.8645975,6.8675585 0.69911585,6.2184513 1.0244237,5.3864175 1.1375261,4.8811239 1.3032225,4.1408631 2.3795908,3.6418371 2.6153837,0.92119073 c 0,0 0.1532595,0.31986107 0.6948884,1.32310687 0.4050624,0.7502867 0.2060823,1.2065845 0.2060823,1.2065845 0.085389,-0.3206328 0.08653,-0.2698293 0.1206721,-0.4141969 0.088513,-0.3742766 -0.050318,-0.9769649 -0.050318,-0.9769649 0,0 1.5849923,1.1327379 1.6781648,2.6202856 0.02648,0.4227681 0.3781602,1.620013 -0.7474148,2.2658324 z"
           id="path3105"
           sodipodi:nodetypes="ssscscscss" />
        <path
           style="fill:#002255;fill-opacity:1;stroke:#000000;stroke-width:0;stroke-linecap:butt;stroke-linejoin:miter;stroke-miterlimit:4;stroke-dasharray:none;stroke-opacity:1"
           d="m 3.0594392,7.2808086 c 0,0 0.3693014,0.098759 0.658161,-0.1588721 C 4.0064597,6.8643042 4.0862059,6.5933315 3.9969136,6.1042907 3.9553616,5.8767163 3.9127134,5.6046151 3.6774396,5.2815057 3.5436216,5.097729 2.8578484,4.5696447 2.8578484,4.5696447 c 0,0 0.079657,0.4512226 -0.4034833,1.2512514 -0.1824238,0.3020744 -0.2030012,1.3439784 0.6050741,1.4599125 z"
           id="path900"
           sodipodi:nodetypes="cssscsc" />
      </g>
    </g>
    <g
       inkscape:groupmode="layer"
       id="layer3"
       inkscape:label="Syringe">
      <g
         id="g6291"
         transform="rotate(-46.58195,3.0222212,5.4737347)"
         style="fill:#002255">
        <rect
           style="fill:#ff9955;fill-opacity:1;stroke:#4d4d4d;stroke-width:0"
           id="rect6274"
           width="2.7489936"
           height="1.012621"
           x="2.613688"
           y="5.6669235" />
        <rect
           style="fill:#ff9955;fill-opacity:1;stroke:#4d4d4d;stroke-width:0"
           id="rect6276"
           width="1.6453459"
           height="0.20728786"
           x="1.3202229"
           y="6.0595694" />
        <rect
           style="fill:#ff9955;fill-opacity:1;stroke:#4d4d4d;stroke-width:0"
           id="rect6280"
           width="0.24516781"
           height="1.571633"
           x="5.3008518"
           y="5.3828001" />
        <rect
           style="fill:#ff9955;fill-opacity:1;stroke:#4d4d4d;stroke-width:0"
           id="rect6282"
           width="1.8040779"
           height="0.25138444"
           x="4.2893057"
           y="6.0303459" />
        <rect
           style="fill:#ff9955;fill-opacity:1;stroke:#4d4d4d;stroke-width:0"
           id="rect6284"
           width="0.20642254"
           height="0.9359442"
           x="5.989399"
           y="5.6731396" />
      </g>
      <rect
         style="fill:#002255;fill-opacity:1;stroke:#4d4d4d;stroke-width:0"
         id="rect6513"
         width="0.077857733"
         height="0.60077363"
         x="-2.03318"
         y="5.7683592"
         transform="rotate(-46.58195)" />
      <rect
         style="fill:#002255;fill-opacity:1;stroke:#4d4d4d;stroke-width:0"
         id="rect6513-8"
         width="0.077857733"
         height="0.60077363"
         x="-1.7096694"
         y="5.7779732"
         transform="rotate(-46.58195)" />
      <rect
         style="fill:#002255;fill-opacity:1;stroke:#4d4d4d;stroke-width:0"
         id="rect6513-6"
         width="0.077857733"
         height="0.60077363"
         x="-1.3825979"
         y="5.7933259"
         transform="rotate(-46.58195)" />
      <rect
         style="fill:#002255;fill-opacity:1;stroke:#4d4d4d;stroke-width:0"
         id="rect6513-8-2"
         width="0.077857733"
         height="0.60077363"
         x="-1.0590873"
         y="5.8029399"
         transform="rotate(-46.58195)" />
    </g>
  </g>
</svg>
