<?xml version="1.0" encoding="UTF-8" standalone="no"?>
<!-- Created with Inkscape (http://www.inkscape.org/) -->

<svg
   width="100mm"
   height="60mm"
   viewBox="0 0 100 60"
   version="1.1"
   id="svg5"
   inkscape:version="1.1.1 (3bf5ae0d25, 2021-09-20)"
   sodipodi:docname="tiling.svg"
   xmlns:inkscape="http://www.inkscape.org/namespaces/inkscape"
   xmlns:sodipodi="http://sodipodi.sourceforge.net/DTD/sodipodi-0.dtd"
   xmlns="http://www.w3.org/2000/svg"
   xmlns:svg="http://www.w3.org/2000/svg">
  <sodipodi:namedview
     id="namedview7"
     pagecolor="#ffffff"
     bordercolor="#cccccc"
     borderopacity="1"
     inkscape:pageshadow="0"
     inkscape:pageopacity="1"
     inkscape:pagecheckerboard="0"
     inkscape:document-units="mm"
     showgrid="false"
     inkscape:zoom="2.7865881"
     inkscape:cx="122.73073"
     inkscape:cy="81.820489"
     inkscape:window-width="2880"
     inkscape:window-height="1526"
     inkscape:window-x="-5"
     inkscape:window-y="-11"
     inkscape:window-maximized="1"
     inkscape:current-layer="layer2" />
  <defs
     id="defs2" />
  <g
     inkscape:label="Background"
     inkscape:groupmode="layer"
     id="layer1">
    <rect
       style="fill:#002255;stroke:#ffffff;stroke-width:0"
       id="rect1075"
       width="100.51548"
       height="60.546104"
       x="2.4654651e-06"
       y="-0.094947293" />
    <path
       sodipodi:type="star"
       style="fill:#ff9955;stroke:#ffffff;stroke-width:0"
       id="path1458"
       inkscape:flatsided="false"
       sodipodi:sides="5"
       sodipodi:cx="268.78748"
       sodipodi:cy="51.317238"
       sodipodi:r1="12.697826"
       sodipodi:r2="6.3489132"
       sodipodi:arg1="0.74541948"
       sodipodi:arg2="1.373738"
       inkscape:rounded="0"
       inkscape:randomized="0"
       d="m 278.11788,59.929921 -8.08738,-2.386642 -6.55092,5.309168 -0.22931,-8.42907 -7.07366,-4.589671 7.94566,-2.82281 2.17916,-8.14574 5.13999,6.684477 8.42046,-0.444674 -4.76897,6.954045 z"
       transform="scale(0.26458333)"
       inkscape:transform-center-x="0.20326215"
       inkscape:transform-center-y="-0.12129481" />
    <path
       sodipodi:type="star"
       style="fill:#ff9955;stroke:#ffffff;stroke-width:0"
       id="path1470"
       inkscape:flatsided="false"
       sodipodi:sides="5"
       sodipodi:cx="259.45709"
       sodipodi:cy="194.14423"
       sodipodi:r1="7.8786306"
       sodipodi:r2="3.9393153"
       sodipodi:arg1="0.52479577"
       sodipodi:arg2="1.1531143"
       inkscape:rounded="0"
       inkscape:randomized="0"
       d="m 266.27547,198.09171 -5.22042,-0.34682 -3.24524,4.10383 -1.28335,-5.07208 -4.90582,-1.81825 4.42727,-2.7879 0.21327,-5.22758 4.01955,3.34907 5.03763,-1.41257 -1.94304,4.85774 z"
       transform="scale(0.26458333)"
       inkscape:transform-center-x="0.13468394"
       inkscape:transform-center-y="0.066565807" />
    <path
       sodipodi:type="star"
       style="fill:#ff9955;stroke:#ffffff;stroke-width:0"
       id="path1484"
       inkscape:flatsided="false"
       sodipodi:sides="5"
       sodipodi:cx="367.1156"
       sodipodi:cy="165.79414"
       sodipodi:r1="11.489183"
       sodipodi:r2="5.7445917"
       sodipodi:arg1="2.8890384"
       sodipodi:arg2="3.5173569"
       inkscape:rounded="0"
       inkscape:randomized="0"
       d="m 355.99088,168.66504 5.78094,-4.97907 -0.82433,-7.5849 6.52178,3.95938 6.95895,-3.12785 -1.75026,7.4261 5.12519,5.65179 -7.60349,0.63019 -3.7914,6.62085 -2.94897,-7.03661 z"
       transform="scale(0.26458333)"
       inkscape:transform-center-x="0.057834147"
       inkscape:transform-center-y="0.23472591" />
    <path
       sodipodi:type="star"
       style="fill:#ff9955;stroke:#ffffff;stroke-width:0"
       id="path1492"
       inkscape:flatsided="false"
       sodipodi:sides="5"
       sodipodi:cx="263.76343"
       sodipodi:cy="13.277886"
       sodipodi:r1="6.3590474"
       sodipodi:r2="3.1795237"
       sodipodi:arg1="0.28605144"
       sodipodi:arg2="0.91436997"
       inkscape:rounded="0"
       inkscape:randomized="0"
       d="m 269.86408,15.072195 -4.16022,0.724441 -1.76172,3.837786 -1.97456,-3.73274 -4.19435,-0.48955 2.93987,-3.0314 -0.83053,-4.1403446 3.7915,1.8592316 3.68105,-2.0693242 -0.59659,4.1804682 z"
       transform="matrix(0.26458333,0,0,0.26458333,-17.090793,10.064578)"
       inkscape:transform-center-x="-0.014611029"
       inkscape:transform-center-y="0.14670399" />
    <path
       sodipodi:type="star"
       style="fill:#ff9955;stroke:#ffffff;stroke-width:0"
       id="path1494"
       inkscape:flatsided="false"
       sodipodi:sides="5"
       sodipodi:cx="364.24472"
       sodipodi:cy="77.873009"
       sodipodi:r1="10.560541"
       sodipodi:r2="5.2802706"
       sodipodi:arg1="-1.4000611"
       sodipodi:arg2="-0.77174258"
       inkscape:rounded="0"
       inkscape:randomized="0"
       d="m 366.03903,67.466017 1.99004,6.724609 6.66776,2.172935 -5.78053,3.970661 -0.006,7.012889 -5.5626,-4.270606 -6.67155,2.161269 2.34265,-6.610041 -4.11712,-5.677151 7.01045,0.185376 z"
       transform="matrix(0.26458333,0,0,0.26458333,-7.4060102,-17.470588)"
       inkscape:transform-center-x="-0.14670282"
       inkscape:transform-center-y="-0.12341387" />
    <path
       sodipodi:type="star"
       style="fill:#ff9955;stroke:#ffffff;stroke-width:0"
       id="path1500"
       inkscape:flatsided="false"
       sodipodi:sides="5"
       sodipodi:cx="320.46359"
       sodipodi:cy="205.62781"
       sodipodi:r1="9.5351954"
       sodipodi:r2="4.7675972"
       sodipodi:arg1="0.34555558"
       sodipodi:arg2="0.97387411"
       inkscape:rounded="0"
       inkscape:randomized="0"
       d="m 329.43514,208.85756 -6.29168,0.71338 -2.97919,5.58736 -2.6227,-5.76329 -6.23451,-1.10679 4.67076,-4.27529 -0.87396,-6.27139 5.50939,3.12102 5.69438,-2.76915 -1.26577,6.20419 z"
       transform="scale(0.26458333)"
       inkscape:transform-center-x="0.02447376"
       inkscape:transform-center-y="0.21751676" />
    <path
       sodipodi:type="star"
       style="fill:#ff9955;stroke:#ffffff;stroke-width:0"
       id="path1504"
       inkscape:flatsided="false"
       sodipodi:sides="5"
       sodipodi:cx="270.94064"
       sodipodi:cy="131.34341"
       sodipodi:r1="11.05504"
       sodipodi:r2="5.5275202"
       sodipodi:arg1="-1.3415644"
       sodipodi:arg2="-0.71324586"
       inkscape:rounded="0"
       inkscape:randomized="0"
       d="m 273.45268,120.57756 1.66811,7.14924 6.83505,2.67887 -6.28386,3.7957 -0.4356,7.32834 -5.55175,-4.80337 -7.10427,1.8503 2.85269,-6.76435 -3.95508,-6.18479 7.31481,0.62277 z"
       transform="matrix(0.26458333,0,0,0.26458333,-11.393862,-1.7090793)"
       inkscape:transform-center-x="-0.20538475"
       inkscape:transform-center-y="-0.076671319" />
  </g>
  <g
     inkscape:groupmode="layer"
     id="layer2"
     inkscape:label="Stars">
    <path
       sodipodi:type="star"
       style="fill:#ff9955;stroke:#ffffff;stroke-width:0"
       id="path847"
       inkscape:flatsided="false"
       sodipodi:sides="5"
       sodipodi:cx="189.47903"
       sodipodi:cy="93.30407"
       sodipodi:r1="52.191879"
       sodipodi:r2="26.09594"
       sodipodi:arg1="0.54985318"
       sodipodi:arg2="1.1781717"
       inkscape:rounded="0"
       inkscape:randomized="0"
       d="m 233.9779,120.57757 -34.51418,-3.16325 -22.17242,26.63866 -7.65704,-33.80243 -32.18652,-12.855427 29.78186,-17.727801 2.28006,-34.583749 26.06324,22.846043 33.59567,-8.518505 -13.67389,31.847432 z"
       transform="matrix(0.05304263,0,0,0.05304263,5.7144989,2.4251715)"
       inkscape:transform-center-x="0.19977056"
       inkscape:transform-center-y="0.067056644" />
    <path
       sodipodi:type="star"
       style="fill:#ff9955;stroke:#ffffff;stroke-width:0"
       id="path853"
       inkscape:flatsided="false"
       sodipodi:sides="5"
       sodipodi:cx="466.52032"
       sodipodi:cy="242.59058"
       sodipodi:r1="52.643936"
       sodipodi:r2="26.321968"
       sodipodi:arg1="1.1193432"
       sodipodi:arg2="1.7476618"
       inkscape:rounded="0"
       inkscape:randomized="0"
       d="m 489.48748,289.96033 -27.59837,-21.45841 -33.32286,10.56978 11.8798,-32.87862 -20.34979,-28.42569 34.94049,1.13831 20.746,-28.13782 9.71461,33.58214 33.17152,11.03555 -28.93652,19.6166 z"
       transform="matrix(0.05304263,0,0,0.05304263,8.1726744,5.3741859)"
       inkscape:transform-center-x="-0.15182046"
       inkscape:transform-center-y="-0.11809859" />
    <path
       sodipodi:type="star"
       style="fill:#ff9955;stroke:#ffffff;stroke-width:0"
       id="path865"
       inkscape:flatsided="false"
       sodipodi:sides="5"
       sodipodi:cx="707.67548"
       sodipodi:cy="1017.732"
       sodipodi:r1="56.55006"
       sodipodi:r2="28.27503"
       sodipodi:arg1="-1.152572"
       sodipodi:arg2="-0.52425347"
       inkscape:rounded="0"
       inkscape:randomized="0"
       d="m 730.64263,966.0559 1.51048,37.5226 31.7665,20.0278 -35.21931,13.0316 -9.23119,36.4007 -23.27721,-29.4686 -37.47169,2.4691 20.8332,-31.2442 -13.92758,-34.87476 36.15283,10.15856 z"
       transform="matrix(0.05304263,0,0,0.05304263,-3.2866106,-7.1170209)"
       inkscape:transform-center-x="-0.19330907"
       inkscape:transform-center-y="0.096284585" />
    <path
       sodipodi:type="star"
       style="fill:#ff9955;stroke:#ffffff;stroke-width:0"
       id="path969"
       inkscape:flatsided="false"
       sodipodi:sides="5"
       sodipodi:cx="279.9122"
       sodipodi:cy="976.10406"
       sodipodi:r1="59.115334"
       sodipodi:r2="29.557667"
       sodipodi:arg1="0.5070985"
       sodipodi:arg2="1.135417"
       inkscape:rounded="0"
       inkscape:randomized="0"
       d="m 331.5883,1004.813 -39.21002,-1.9087 -23.80111,31.2182 -10.30128,-37.88076 -37.04523,-12.98925 32.84349,-21.5029 0.9059,-39.246 30.59967,24.59125 37.6051,-11.26611 -13.93185,36.70112 z"
       transform="matrix(0.05304263,0,0,0.05304263,1.251903,0.62114337)"
       inkscape:transform-center-x="0.18579404"
       inkscape:transform-center-y="0.11716927" />
    <path
       sodipodi:type="star"
       style="fill:#ff9955;stroke:#ffffff;stroke-width:0"
       id="path1308"
       inkscape:flatsided="false"
       sodipodi:sides="5"
       sodipodi:cx="167.2296"
       sodipodi:cy="205.62781"
       sodipodi:r1="6.9028444"
       sodipodi:r2="3.4514222"
       sodipodi:arg1="1.0838971"
       sodipodi:arg2="1.7122156"
       inkscape:rounded="0"
       inkscape:randomized="0"
       d="m 170.45936,211.72846 -3.71623,-2.68369 -4.31754,1.53992 1.40395,-4.36364 -2.79874,-3.63037 4.58392,-0.0132 2.58782,-3.78361 1.42907,4.35549 4.3981,1.29197 -3.70071,2.70504 z"
       transform="matrix(0.26458333,0,0,0.26458333,35.605818,-21.933184)"
       inkscape:transform-center-x="-0.079548133"
       inkscape:transform-center-y="-0.097007843" />
    <path
       sodipodi:type="star"
       style="fill:#ff9955;stroke:#ffffff;stroke-width:0"
       id="path1312"
       inkscape:flatsided="false"
       sodipodi:sides="5"
       sodipodi:cx="19.378536"
       sodipodi:cy="100.12244"
       sodipodi:r1="18.071817"
       sodipodi:r2="9.0359087"
       sodipodi:arg1="0.11942893"
       sodipodi:arg2="0.74774746"
       inkscape:rounded="0"
       inkscape:randomized="0"
       d="m 37.321625,102.27561 -11.317758,3.99114 -3.128398,11.58594 -7.293186,-9.53049 -11.9856126,0.60497 6.8103216,-9.881319 -4.2791176,-11.212049 11.5021956,3.423506 9.340973,-7.534397 0.298426,11.99716 z"
       transform="scale(0.26458333)"
       inkscape:transform-center-x="-0.28591175"
       inkscape:transform-center-y="0.17604451" />
    <path
       sodipodi:type="star"
       style="fill:#ff9955;stroke:#ffffff;stroke-width:0"
       id="path1314"
       inkscape:flatsided="false"
       sodipodi:sides="5"
       sodipodi:cx="24.043739"
       sodipodi:cy="220.34114"
       sodipodi:r1="4.3657422"
       sodipodi:r2="2.1828711"
       sodipodi:arg1="-1.4056476"
       sodipodi:arg2="-0.77732912"
       inkscape:rounded="0"
       inkscape:randomized="0"
       d="m 24.761463,216.0348 0.838204,2.77532 2.761435,0.88288 -2.38047,1.6548 0.01366,2.89911 -2.309415,-1.7526 -2.752993,0.90887 0.953173,-2.73797 -1.715104,-2.3374 2.898509,0.0605 z"
       transform="scale(0.26458333)"
       inkscape:transform-center-x="-0.058681535"
       inkscape:transform-center-y="-0.0529929" />
  </g>
</svg>
