<svg xmlns="http://www.w3.org/2000/svg" version="1.1" xmlns:xlink="http://www.w3.org/1999/xlink" xmlns:svgjs="http://svgjs.com/svgjs" width="100" height="100"><svg version="1.1" x="0px" y="0px" viewBox="0 0 100 100" enable-background="new 0 0 100 100" xml:space="preserve" id="SvgjsSvg1005" sodipodi:docname="noun_Cat_1486580.svg" width="100" height="100" inkscape:version="1.1 (c68e22c387, 2021-05-23)" xmlns:inkscape="http://www.inkscape.org/namespaces/inkscape" xmlns:sodipodi="http://sodipodi.sourceforge.net/DTD/sodipodi-0.dtd" xmlns="http://www.w3.org/2000/svg" xmlns:svg="http://www.w3.org/2000/svg"><defs id="SvgjsDefs1004"></defs><sodipodi:namedview id="SvgjsSodipodi:namedview1003" pagecolor="#505050" bordercolor="#ffffff" borderopacity="1" inkscape:pageshadow="0" inkscape:pageopacity="0" inkscape:pagecheckerboard="1" showgrid="false" inkscape:zoom="6.256" inkscape:cx="50.031969" inkscape:cy="56.745524" inkscape:window-width="1920" inkscape:window-height="986" inkscape:window-x="-11" inkscape:window-y="-11" inkscape:window-maximized="1" inkscape:current-layer="svg12"></sodipodi:namedview><path d="m 92.165516,53.827575 c -1.046052,0 -1.892737,0.846685 -1.892737,1.892737 0,10.989231 -4.341939,21.259223 -12.225819,28.917237 C 70.166864,92.29304 59.766905,96.343497 48.762531,96.01416 27.862928,95.409746 10.703373,78.5871 9.6989612,57.716518 8.6352429,35.6308 25.033917,17.093333 47.032569,15.513529 c 0.69148,-0.04921 1.300942,-0.473184 1.587376,-1.104097 1.374127,-3.02207 4.049195,-8.0012305 6.08578,-10.136238 1.000628,0.7356439 2.760873,2.4908421 4.304084,6.399975 0.296529,0.752048 1.058672,1.235327 1.847312,1.19621 0.09212,-0.0076 9.341289,-0.367191 14.92234,4.107239 0.685171,0.550156 1.660561,0.55268 2.350778,0.01388 0.03407,-0.0265 3.013239,-2.319233 6.518587,-2.852985 0.406307,2.258666 0.815139,7.173474 -1.337534,13.818243 -0.789902,2.442893 -1.707249,4.700297 -2.725541,6.70786 -2.749516,5.424585 -8.331829,8.810061 -14.253572,8.654856 l -0.128707,-0.005 C 60.153023,42.08382 56.135373,38.261753 56.101303,38.227684 c -0.745738,-0.73312 -1.94321,-0.723026 -2.677592,0.02398 -0.731858,0.745738 -0.721763,1.944472 0.02398,2.677593 0.203155,0.199367 5.052347,4.880737 12.598058,5.167171 l 0.238486,0.0088 c 7.351391,0.218295 14.267451,-4.005032 17.675641,-10.729296 1.10662,-2.182957 2.099675,-4.624587 2.950145,-7.25423 C 90.328299,17.56147 87.9914,10.782948 87.890454,10.499037 87.622947,9.7482515 86.915063,9.2460453 86.118852,9.2422598 c -0.02272,0 -0.04416,0 -0.06688,0 -3.840994,0 -7.304703,1.8233372 -9.05864,2.9362662 C 71.731526,8.6403695 64.886127,8.1255449 62.019261,8.0763338 59.070377,1.494656 55.399729,0.28708975 54.969447,0.16469274 54.43191,0.01327378 53.853994,0.10664881 53.392166,0.42210499 50.341074,2.4965449 46.921529,9.1753831 45.644562,11.831524 22.144339,14.095238 4.7715356,34.11661 5.9172725,57.898222 7.0175836,80.732201 25.788489,99.135916 48.654014,99.798373 c 0.441638,0.01261 0.882015,0.01892 1.32113,0.01892 11.544435,0 22.404961,-4.397459 30.710291,-12.464305 8.62331,-8.377251 13.372818,-19.611277 13.372818,-31.632681 0,-1.046052 -0.846685,-1.892737 -1.892737,-1.892737 z" id="SvgjsPath1002" style="stroke-width:1.26183"></path><path d="m 74.653913,35.546258 c 0.85047,0 1.785481,-0.147633 2.796204,-0.514824 0.982961,-0.355835 1.490214,-1.442266 1.13438,-2.423966 -0.357097,-0.982961 -1.442267,-1.490215 -2.423966,-1.13438 -2.511031,0.908514 -4.040363,-0.71167 -4.21828,-0.914823 -0.668767,-0.789902 -1.849835,-0.89842 -2.652355,-0.237224 -0.805044,0.666244 -0.918609,1.85993 -0.252365,2.664974 0.10599,0.128707 2.165291,2.560243 5.616382,2.560243 z" id="SvgjsPath1001" style="stroke-width:1.26183"></path><path d="m 60.83567,31.190439 c 0.982962,-0.355834 1.490215,-1.442266 1.134381,-2.423965 -0.355835,-0.9817 -1.439742,-1.488953 -2.423966,-1.134381 -2.507246,0.905991 -4.040362,-0.711669 -4.21828,-0.914822 -0.668767,-0.789903 -1.849834,-0.89842 -2.652356,-0.237223 -0.806305,0.666242 -0.918608,1.85993 -0.252364,2.664973 0.105989,0.128706 2.166552,2.558981 5.616381,2.558981 0.849209,0.0012 1.785482,-0.146372 2.796204,-0.513563 z" id="SvgjsPath1000" style="stroke-width:1.26183"></path></svg><style>@media (prefers-color-scheme: light) { :root { filter: none; } }
@media (prefers-color-scheme: dark) { :root { filter: invert(100%); } }
</style></svg>